<?xml version="1.0" standalone="no"?>
<!DOCTYPE svg PUBLIC "-//W3C//DTD SVG 1.1//EN" "http://www.w3.org/Graphics/SVG/1.1/DTD/svg11.dtd" >
<svg xmlns="http://www.w3.org/2000/svg">
<metadata>
Created by FontPrep 20130207 at Fri Dec  6 13:30:36 2013
 By Anton McConville
copyright missing
</metadata>
<defs>
<font id="04b530a8db6e0f4a0fdb83697b7ace5f" horiz-adv-x='1024' >
  <font-face 
    font-family="OrionIconFont-Regular"
    font-weight="400"
    font-stretch="normal"
    units-per-em="2048"
    panose-1="0 0 5 0 0 0 0 0 0 0"
    ascent="1664"
    descent="-384"
    x-height="1280"
    cap-height="1520"
    bbox="-0.450704 -384.451 2052.28 1664"
    underline-thickness="100"
    underline-position="-100"
    unicode-range="U+0020-007A"
  />
<missing-glyph horiz-adv-x="1000" 
d="M100 1210v-1020l340 510zM160 100h680l-340 510zM560 700l340 -510v1020zM500 790l340 510h-680zM0 0v1400h1000v-1400h-1000z" />
    <glyph glyph-name=".notdef" horiz-adv-x="1000" 
d="M100 1210v-1020l340 510zM160 100h680l-340 510zM560 700l340 -510v1020zM500 790l340 510h-680zM0 0v1400h1000v-1400h-1000z" />
    <glyph glyph-name=".null" horiz-adv-x="0" 
 />
    <glyph glyph-name="nonmarkingreturn" horiz-adv-x="682" 
 />
    <glyph glyph-name="space" unicode=" " horiz-adv-x="1200" 
 />
    <glyph glyph-name="A" unicode="A" 
d="M1920 -128h-1792v256h1792v-256zM1920 512h-1792v256h1792v-256zM1920 1152h-1792v256h1792v-256z" />
    <glyph glyph-name="B" unicode="B" 
d="M1044 262q160 0 272 113t112 271t-112 271t-272 113t-272 -113t-112 -271t112 -271t272 -113zM2048 512h-376q-13 -82 -27 -111q-15 -29 -23 -44q-7 -15 -46 -67l280 -278l-184 -182l-286 282q-4 -4 -20 -14t-21 -14t-20 -12t-22 -12t-22 -11t-27 -10t-33 -10t-69 -11
v-402h-256v402q0 6 -93 40t-121 54l-272 -282l-180 180l280 280q-6 10 -24 36q-26 38 -43 75t-25 111h-418v256h418q11 87 29 123q19 35 23 43t20 31t20 31l-282 282l178 182l276 -282q28 20 121 54t93 40v392h256v-392q24 -2 45 -7t36 -8t33 -11t26 -10q13 -3 47 -26
l24 -16q21 -14 23 -16l292 282l182 -182l-282 -282q4 -8 20 -31t21 -31t16 -29t15 -37t11 -42t11 -58h376v-256z" />
    <glyph glyph-name="C" unicode="C" 
d="M1024 664q-186 0 -317 131t-131 317t131 317t317 131t317 -131t131 -317t-131 -317t-317 -131zM726 316h596q272 0 435 -141t163 -457h-1792q0 316 163 457t435 141z" />
    <glyph glyph-name="D" unicode="D" 
d="M1444 520q-98 0 -196 38l-732 -718q-72 -72 -167 -81t-155 50t-51 152t83 165l732 718q-40 90 -40 190q0 214 154 365t372 151q130 0 242 -58t184 -158h-338l-140 -240l140 -240h402q-56 -148 -190 -241t-300 -93z" />
    <glyph glyph-name="E" unicode="E" 
d="M1664 512v256h-512v512h-256v-512h-512v-256h512v-512h256v512h512zM0 1664h2048v-2048h-2048v2048z" />
    <glyph glyph-name="F" unicode="F" 
d="M1370 322h460l-224 706zM218 316h460l-224 706zM1600 -86q-186 0 -317 113t-131 273l306 732h-870l308 -738q0 -160 -131 -273t-317 -113t-317 113t-131 273l310 738h-172v138h228l82 196l82 -196h986l84 202l84 -202h246v-138h-188l306 -732q0 -160 -131 -273t-317 -113
z" />
    <glyph glyph-name="G" unicode="G" 
d="M665 1310q-123 0 -210 -87t-87 -209t87 -209t210 -87t209 87t86 209t-86 209t-209 87zM0 1664h892l1156 -1156l-892 -892l-1156 1156l4 450z" />
    <glyph glyph-name="H" unicode="H" 
d="M1332 1304l356 -356l176 178l-354 354zM270 -114l586 198l-388 388zM1516 1664l532 -532l-1244 -1246l-804 -270l272 804z" />
    <glyph glyph-name="I" unicode="I" 
d="M1280 274h210q52 0 90 -38t38 -90v-258q0 -52 -38 -90t-90 -38h-594q-52 0 -90 38t-38 90v864h-384l630 768l650 -768h-384v-478z" />
    <glyph glyph-name="J" unicode="J" 
d="M384 -128h1280v1024h-512v512h-768v-1536zM1792 -256h-1536v1792h916l502 -506l118 -128v-1158z" />
    <glyph glyph-name="K" unicode="K" 
d="M1024 896h-512v128h512v-128zM1536 128h-1024v128h1024v-128zM1536 512h-1024v128h1024v-128zM384 -128h1280v1024h-512v512h-768v-1536zM1792 -256h-1536v1792h916l502 -506l118 -128v-1158z" />
    <glyph glyph-name="L" unicode="L" 
d="M811 186q173 0 173 127q0 61 -30 90t-100 43l-54 12q-104 24 -152 72q-46 50 -46 139t67 149t168 60t201 -40v-102q-94 60 -174 60t-123 -34t-43 -87t27 -78t103 -43l52 -12q106 -24 154 -77t48 -152t-65 -154t-178 -55t-227 44v108q108 -70 199 -70zM1664 -128v1024
h-512v512h-768v-1536h1280zM1792 -256h-1536v1792h916l124 -138l378 -392l118 -128v-1134z" />
    <glyph glyph-name="M" unicode="M" 
d="M930 414v418h-190v86h290v-504q0 -142 -53 -200t-161 -58t-208 46v118q86 -82 194 -82q70 0 100 38q28 38 28 138zM1664 -128v1024h-512v512h-768v-1536h1280zM1792 -256h-1536v1792h936l118 -106l374 -364l108 -128v-1194z" />
    <glyph glyph-name="N" unicode="N" 
d="M596 856h108l164 -282l168 282h108l-224 -350l240 -396h-108l-184 322l-198 -322h-108l250 396zM1664 -128v1024h-512v512h-768v-1536h1280zM1792 -256h-1536v1792h936l118 -138l374 -392l108 -128v-1134z" />
    <glyph glyph-name="O" unicode="O" 
d="M898 678l-310 -246l310 -242v-140l-384 320v126l384 322v-140zM1026 818l384 -322v-126l-384 -320v140l308 242l-308 246v140zM1664 -128v1024h-512v512h-768v-1536h1280zM1792 -256h-1536v1792h898l128 -104l382 -358l128 -128v-1202z" />
    <glyph glyph-name="P" unicode="P" 
d="M1808 0v896h-1568v-896h1568zM1920 1152v-1280h-1792v1536h914l244 -256h634z" />
    <glyph glyph-name="Q" unicode="Q" 
d="M896 128v384h-384v256h384v384h256v-384h384v-256h-384v-384h-256zM1792 -128v1536h-1536v-1536h1536zM128 1536h1792v-1792h-1792v1792z" />
    <glyph glyph-name="R" unicode="R" 
d="M1536 768v-256h-1024v256h1024zM1792 -128v1536h-1536v-1536h1536zM128 1536h1792v-1792h-1792v1792z" />
    <glyph glyph-name="S" unicode="S" 
d="M384 716l646 822l78 -108l556 -720l-374 6l-2 -786q0 -52 -27 -91t-87 -65t-122 -26l-28 -2q-164 0 -234 97q-28 39 -28 91l8 776z" />
    <glyph glyph-name="T" unicode="T" 
d="M384 562l386 8l-8 776q0 52 28 91q45 63 143 85q54 12 91 12l28 -2q63 0 122 -26q114 -50 114 -156l2 -788l374 8l-556 -720l-78 -108z" />
    <glyph glyph-name="U" unicode="U" 
d="M946 0l-820 646l108 78l720 556l-8 -374l788 -2q52 0 91 -27t65 -87t26 -122l2 -28q0 -164 -97 -234q-39 -28 -91 -28l-776 10z" />
    <glyph glyph-name="V" unicode="V" 
d="M314 904h788l-8 376l720 -556l108 -78l-820 -646l-8 386l-776 -10q-52 0 -91 29q-64 48 -85 143q-12 55 -12 92l2 28q0 63 26 122q50 114 156 114z" />
    <glyph glyph-name="W" unicode="W" 
d="M1348 836l-104 106l104 104l106 -104zM1138 626l-104 106l104 104l106 -104zM928 416l-104 106l104 104l106 -104zM718 206l-104 106l104 104l106 -104zM1138 1046l-104 106l104 104l106 -104zM928 836l-104 106l104 104l106 -104zM718 626l-104 106l104 104l106 -104z
M508 416l-104 106l104 104l106 -104zM1558 626l-104 106l104 104l106 -104zM1348 416l-104 106l104 104l106 -104zM1138 206l-104 106l104 104l106 -104zM928 -4l-104 106l104 104l106 -104zM1916 798l-734 734q102 102 225 124t238 -25t219 -151t151 -220t25 -238
t-124 -224zM184 -200q-104 104 -152 219t-25 238t125 225l734 -734q-102 -102 -225 -125t-238 25t-219 152z" />
    <glyph glyph-name="X" unicode="X" 
d="M606 1182q-106 0 -142 18t-94 40t-73 33t-30 14t-19 7q-26 30 -80 54q-20 12 -82 59t-72 57t-11 18t3 13t13 12t18 17t67 27t131 34t208 17t223 -30q155 -52 248 -197q27 -43 64 -61q32 0 46 -14t4 -66t15 -156t43 -140q95 -214 235 -375q27 -31 35 -41t13 -16l15 -18
q10 -12 17 -17t18 -13t17 -8h16q10 4 28 28l30 40q12 16 34 28q48 32 116 38q132 12 233 -87t144 -245t-35 -268q-74 -110 -182 -162q-150 -70 -269 -35t-203 129q-128 136 -115 279q9 101 105 166q28 19 39 36t9 24t-14 19t-26 27t-22 23q-216 235 -314 506
q-28 114 -41 132t-20 20q-17 5 -67 -78q-160 -252 -170 -612q-2 -40 6 -51t61 -5t107 -12q130 -42 170 -172t-26 -300q-54 -128 -153 -186t-287 -32q-140 18 -232 144q-52 72 -72 171t3 199t82 147t145 61q67 3 93 -3q25 -7 36 -3t19 13t11 24q5 25 5 54v21q8 56 8 84
q4 28 4 40l-2 28q12 48 14 87t19 89l25 74q8 24 19 41t30 68t24 60t19 25q35 40 30 84q-22 -2 -90 -14t-174 -12z" />
    <glyph glyph-name="Y" unicode="Y" 
d="M912 1332q0 32 38 54t90 22t90 -22t38 -54v-384l272 272q22 22 64 11t80 -48t48 -80t-12 -63l-272 -272h384q32 0 54 -38t22 -90t-22 -90t-54 -38h-384l272 -272q22 -20 12 -63t-48 -80t-80 -48t-64 11l-272 272v-384q0 -32 -38 -54t-90 -22t-90 22t-38 54v384l-272 -272
q-20 -22 -62 -12t-80 48t-49 80t11 64l272 272h-384q-32 0 -54 38t-22 90t22 90t54 38h384l-272 272q-22 22 -11 64t49 80t80 48t62 -12l272 -272v384z" />
    <glyph glyph-name="Z" unicode="Z" 
d="M130 30q-4 340 248 571t710 307q4 66 12 192t12 194q152 -122 420 -340t390 -316q-303 -246 -501 -409q-199 -163 -297 -243q-14 174 -34 382q-308 4 -542 -68t-418 -270z" />
    <glyph glyph-name="a" unicode="a" 
d="M410 842q260 0 311 -3t75 16t38 67q137 475 192 614q158 -518 179 -592t45 -91t74 -15q326 6 596 -12q-30 -20 -186 -128t-316 -206q-56 -34 -32 -98q138 -342 224 -628q-388 272 -588 412q-240 -178 -584 -434q162 502 179 556t26 80t13 34t5 23t0 17t-10 13t-17 14
t-30 18t-183 125t-293 218h282z" />
    <glyph glyph-name="b" unicode="b" 
d="M1018 1224q278 0 475 42t197 100t-197 100t-475 42t-475 -42t-197 -100t197 -100t475 -42zM942 -12l724 724l-180 180l-544 -542l-270 272l-182 -182zM1024 1664q372 0 634 -75t262 -181v-1476q0 -70 -118 -143t-330 -123t-448 -50q-354 0 -625 103t-271 213v1476
q0 106 262 181t634 75z" />
    <glyph glyph-name="c" unicode="c" 
d="M1025 1238q279 0 475 41t196 100t-197 101t-475 42t-475 -42t-197 -101t197 -100t476 -41zM1152 402v640h-256v-640h-414l542 -542l544 542h-416zM1024 1664q372 0 634 -75t262 -181v-1476q0 -110 -271 -213t-625 -103t-625 103t-271 213v1476q0 106 262 181t634 75z" />
    <glyph glyph-name="d" unicode="d" 
d="M1025 1238q279 0 475 41t196 100t-197 101t-475 42t-475 -42t-197 -101t197 -100t476 -41zM1536 208v256h-640v464l-542 -544l542 -544v368h640zM1024 1664q372 0 634 -75t262 -181v-1476q0 -70 -118 -143t-330 -123t-448 -50q-354 0 -625 103t-271 213v1476
q0 106 262 181t634 75z" />
    <glyph glyph-name="e" unicode="e" 
d="M1024 1238q274 0 466 41t192 100t-193 101t-465 42t-465 -42t-193 -101t192 -100t466 -41zM652 -108v1088l-252 70v-1088zM1024 1664q362 0 620 -75t258 -181v-1476q0 -110 -265 -213t-613 -103t-613 103t-265 213v1476q0 106 258 181t620 75z" />
    <glyph glyph-name="f" unicode="f" 
d="M1882 642q0 270 -193 464t-453 194t-445 -160t-221 -400h422l-496 -486l-496 486h402q38 308 271 517t562 209t571 -242t242 -582t-233 -579t-567 -249v166q264 10 449 201t185 461z" />
    <glyph glyph-name="g" unicode="g" 
d="M1568 1414q-108 0 -184 -76t-76 -184t76 -184t184 -76t185 76t77 184t-77 184t-185 76zM1608 658q156 0 267 -110t111 -265t-109 -265t-265 -110q-56 0 -112 18q-116 -146 -279 -228t-355 -82q-340 0 -575 241t-235 585q0 308 231 546t529 276v400l384 -426
q32 146 130 238t257 92t282 -122t123 -293t-118 -291t-280 -120t-270 100t-130 252l-378 -422v424q-200 -37 -392 -220q-88 -84 -145 -199t-57 -235q0 -276 178 -468t448 -192q306 0 500 230q-116 112 -116 269t110 267t266 110z" />
    <glyph glyph-name="h" unicode="h" 
d="M1724 -106q84 0 144 60t60 145t-60 144t-144 59t-144 -59t-60 -144t60 -145t144 -60zM1228 -35q0 85 -60 145t-145 60t-144 -60t-59 -145t59 -144t144 -59t145 59t60 144zM323 -106q85 0 145 60t60 145t-60 144t-145 59t-144 -59t-59 -144t59 -145t144 -60zM1724 422
q134 0 229 -95t95 -229t-95 -229t-229 -95t-229 95t-95 232t104 235l-406 664h-2v-720q108 -24 180 -112t72 -212t-95 -219t-230 -95t-229 95t-94 219t71 212t179 112v720q-6 0 -8 2l-404 -662q110 -94 110 -235t-95 -236t-229 -95t-229 95t-95 229t94 229t230 95
q44 0 86 -12l402 660q-112 96 -112 237t94 236t229 95t230 -95t95 -238t-118 -241l400 -656q42 14 94 14z" />
    <glyph glyph-name="i" unicode="i" 
d="M1536 314q92 0 158 65t66 159t-66 159t-158 65t-158 -65t-66 -159t66 -159t158 -65zM736 -28q0 92 -66 158t-158 66t-158 -66t-66 -158t66 -158t158 -66t158 66t66 158zM288 1308q0 -92 66 -158t158 -66t158 66t66 158t-66 158t-158 66t-158 -66t-66 -158zM1549 894
q135 0 239 -105t104 -251t-104 -251t-243 -105t-237 83t-122 209q-186 12 -343 75t-259 161v-390q122 -24 203 -122t81 -236t-104 -242t-252 -104t-252 104t-104 242t81 236t203 122v640q-122 24 -203 122t-81 236t104 242t252 104t252 -104t104 -252q0 -100 -52 -183
t-138 -129q14 -142 160 -245t356 -119q32 114 126 188t229 74z" />
    <glyph glyph-name="j" unicode="j" 
d="M1021 -384q-339 0 -581 242t-242 571t209 563t517 270v402l484 -496l-484 -496v422q-240 -36 -400 -221t-160 -445t194 -453t464 -193t461 185t201 449h166q-10 -334 -250 -567t-579 -233z" />
    <glyph glyph-name="k" unicode="k" 
d="M1408 -384v512h512v-512h-512zM1408 896h512v-512h-512v512zM640 1664v-512h-512v512h512zM1792 1408v-128h-768v128h768zM512 896v-256h640v-128h-640v-640h640v-128h-768v1152h128z" />
    <glyph glyph-name="l" unicode="l" 
d="M1408 640l-768 -512v1024z" />
    <glyph glyph-name="m" unicode="m" 
d="M1024 256l-512 768h1024z" />
    <glyph glyph-name="n" unicode="n" 
d="M758 226h314l-472 -484l-472 484h308v1310h316v-438h4q0 -190 199 -331t493 -165v364l472 -484l-472 -484v402q-398 20 -690 206v-380z" />
    <glyph glyph-name="o" unicode="o" 
d="M1450 1280l214 -212l-426 -428l426 -426l-214 -214l-426 428l-426 -428l-214 214l426 426l-426 428l214 212l426 -426z" />
    <glyph glyph-name="p" unicode="p" 
d="M1024 1024v-128h128v-128h128v-128h128v-128h-384v-512h-128v512h-384v128h128v128h128v128h128v128h128zM1664 -128v1024h-512v512h-768v-1536h1280zM1792 -256h-1536v1792h896l640 -634v-1158z" />
    <glyph glyph-name="q" unicode="q" 
d="M1152 768v-256h256v-256h-256v-256h-256v256h-256v256h256v256h256zM1664 -128v1024h-512v512h-768v-1536h1280zM1792 -256h-1536v1792h896l640 -640v-1152z" />
    <glyph glyph-name="r" unicode="r" 
d="M1664 -128v1024h-512v512h-768v-1536h1280zM1792 -256h-1536v1792h898l638 -634v-1158zM1024 1024v-512h384v-128h-128v-128h-128v-128h-128v-128h-128v128h-128v128h-128v128h-128v128h384v512h128z" />
    <glyph glyph-name="t" unicode="t" 
d="M688 810l272 -272l272 272l90 -90l-272 -272l272 -272l-90 -90l-272 272l-272 -272l-90 90l272 272l-272 272zM1664 -128v1024h-512v512h-768v-1536h1280zM1792 -256h-1536v1792h896l640 -640v-1152z" />
    <glyph glyph-name="u" unicode="u" 
d="M1792 -128v1536h-1536v-1536h1536zM128 1536h1792v-1792h-1792v1792zM1664 1280v-1024l-440 440l-690 -690l-144 144l690 690l-440 440h1024z" />
    <glyph glyph-name="v" unicode="v" 
 />
    <glyph glyph-name="w" unicode="w" horiz-adv-x="1200" 
 />
    <glyph glyph-name="y" unicode="y" horiz-adv-x="1200" 
 />
    <glyph glyph-name="z" unicode="z" horiz-adv-x="1200" 
 />
    <glyph glyph-name="E025" 
d="M1664 308h256v-512h-1792v512h256v-256h1280v256zM1028 172l-472 600l282 4l-6 568q0 62 48 96t96 38l48 4q121 0 171 -69q21 -29 21 -67l2 -574l274 4z" />
    <glyph glyph-name="E026" 
d="M720 316h608l-304 494zM1622 434q122 0 210 -82t88 -198t-87 -199t-211 -83t-212 82t-88 200h-596q0 -118 -88 -200t-212 -82t-211 83t-87 199t88 198t210 82q80 0 150 -38l298 488q-68 36 -108 101t-40 141q0 116 87 199t211 83t211 -83t87 -199q0 -76 -40 -141
t-108 -101l298 -488q70 38 150 38z" />
    <glyph glyph-name="newGlyph" horiz-adv-x="1200" 
 />
  </font>
</defs>
</svg>
